<?xml version="1.0" encoding="utf-8"?>
<!-- Generator: Adobe Illustrator 18.0.0, SVG Export Plug-In . SVG Version: 6.00 Build 0)  -->
<!DOCTYPE svg PUBLIC "-//W3C//DTD SVG 1.1//EN" "http://www.w3.org/Graphics/SVG/1.1/DTD/svg11.dtd">
<svg version="1.1" id="Layer_1" xmlns="http://www.w3.org/2000/svg" xmlns:xlink="http://www.w3.org/1999/xlink" x="0px" y="0px"
	 width="800px" height="600px" viewBox="0 0 800 600" enable-background="new 0 0 800 600" xml:space="preserve">
<g>
	<rect fill="#464662" width="800" height="600"/>
	<g>
		<path fill="#FFFFFF" d="M0,47.7v6.6c0.3,0,0.5-0.1,0.8-0.1c8-1.8,9.9-10.1,9.1-17.2c-0.5-4.1-7-4.2-6.5,0
			C3.8,40.3,4.1,46.5,0,47.7z"/>
		<path fill="#FFFFFF" d="M0,26.5c1.5-1.2,3.1-2.2,4.6-2.8C13.5,20,20.1,29.3,21.1,37C22.6,49.6,12,61.6,0,62.8v6.6
			C20.7,67.8,35.8,42.1,22.8,24c-5.9-8.1-15-8.6-22.8-5V26.5z"/>
		<path fill="#FFFFFF" d="M201.4,364.7c23.1,2.7,41.7-25.8,27.7-45.2c-13.3-18.5-43.5,2.6-36.7,21.7c2.1,5.8,8.6,9.9,14.7,8.5
			c8-1.8,9.9-10.1,9.1-17.2c-0.5-4.1-7-4.2-6.5,0c0.4,3.6,0.8,10.3-4.2,10.9c-4,0.5-7.2-2.9-7.5-6.6c-0.7-7.2,6.9-15,12.9-17.5
			c8.9-3.8,15.5,5.6,16.4,13.3c2,15.9-15.7,31-30.7,24.1c-8.1-3.7-12.6-14-11.5-22.5c1.1-7.8,6.7-15,9.4-22.4c1.5-4-4.8-5.6-6.3-1.7
			c-4.5,12.1-12.2,21.3-8.6,34.9C182.3,355,190.8,363.5,201.4,364.7z"/>
		<path fill="#FFFFFF" d="M559.7,280.4c-13.3-18.5-43.5,2.6-36.7,21.7c2.1,5.8,8.6,9.9,14.7,8.5c8-1.8,9.9-10.1,9.1-17.2
			c-0.5-4.1-7-4.2-6.5,0c0.4,3.6,0.8,10.3-4.2,10.9c-4,0.5-7.2-2.9-7.5-6.6c-0.7-7.2,6.9-15,12.9-17.5c8.9-3.8,15.5,5.6,16.4,13.3
			c2,15.9-15.7,31-30.7,24.1c-8.1-3.7-12.6-14-11.5-22.5c1.1-7.8,6.7-15,9.4-22.4c1.5-4-4.8-5.6-6.3-1.7
			c-4.5,12.1-12.2,21.3-8.6,34.9c2.7,10.1,11.2,18.6,21.8,19.8C555,328.3,573.6,299.9,559.7,280.4z"/>
		<path fill="#FFFFFF" d="M360.6,176.6c1.5-4-4.8-5.6-6.3-1.7c-4.5,12.1-12.2,21.3-8.6,34.9c2.7,10.1,11.2,18.6,21.8,19.8
			c23.1,2.7,41.7-25.8,27.7-45.2c-13.3-18.5-43.5,2.6-36.7,21.7c2.1,5.8,8.6,9.9,14.7,8.5c8-1.8,9.9-10.1,9.1-17.2
			c-0.5-4.1-7-4.2-6.5,0c0.4,3.6,0.8,10.3-4.2,10.9c-4,0.5-7.2-2.9-7.5-6.6c-0.7-7.2,6.9-15,12.9-17.5c8.9-3.8,15.5,5.6,16.4,13.3
			c2,15.9-15.7,31-30.7,24.1c-8.1-3.7-12.6-14-11.5-22.5C352.3,191.2,357.9,184,360.6,176.6z"/>
		<path fill="#FFFFFF" d="M687.6,440c23.1,2.7,41.7-25.8,27.7-45.2c-13.3-18.5-43.5,2.6-36.7,21.7c2.1,5.8,8.6,9.9,14.7,8.5
			c8-1.8,9.9-10.1,9.1-17.2c-0.5-4.1-7-4.2-6.5,0c0.4,3.6,0.8,10.3-4.2,10.9c-4,0.5-7.2-2.9-7.5-6.6c-0.7-7.2,6.9-15,12.9-17.5
			c8.9-3.8,15.5,5.6,16.4,13.3c2,15.9-15.7,31-30.7,24.1c-8.1-3.7-12.6-14-11.5-22.5c1.1-7.8,6.7-15,9.4-22.4c1.5-4-4.8-5.6-6.3-1.7
			c-4.5,12.1-12.2,21.3-8.6,34.9C668.5,430.3,677,438.8,687.6,440z"/>
		<path fill="#FFFFFF" d="M746.5,130.3c-0.9,7.1,1.1,15.5,9.1,17.2c6.1,1.4,12.7-2.8,14.7-8.5c6.8-19.1-23.4-40.2-36.7-21.7
			c-14,19.4,4.6,47.9,27.7,45.2c10.5-1.2,19.1-9.7,21.8-19.8c3.6-13.6-4.1-22.7-8.6-34.9c-1.5-3.9-7.8-2.2-6.3,1.7
			c2.7,7.4,8.3,14.5,9.4,22.4c1.2,8.5-3.4,18.8-11.5,22.5c-15,6.9-32.8-8.2-30.7-24.1c1-7.7,7.5-17.1,16.4-13.3
			c6,2.5,13.5,10.4,12.9,17.5c-0.3,3.7-3.5,7.2-7.5,6.6c-5-0.6-4.6-7.4-4.2-10.9C753.5,126.2,747,126.2,746.5,130.3z"/>
		<path fill="#FFFFFF" d="M537.6,596.4c1.1-7.8,6.7-15,9.4-22.4c1.5-4-4.8-5.6-6.3-1.7c-3.7,9.9-9.4,17.8-9.5,27.7h6.3
			C537.4,598.8,537.4,597.6,537.6,596.4z"/>
		<path fill="#FFFFFF" d="M586.2,600c0.8-6.2-0.5-12.6-4.6-18.2c-12.5-17.4-40,0.2-37.5,18.2h6.6c-0.1-0.3-0.1-0.7-0.2-1
			c-0.7-7.2,6.9-15,12.9-17.5c8.9-3.8,15.5,5.6,16.4,13.3c0.2,1.8,0.2,3.5,0,5.2H586.2z"/>
		<path fill="#FFFFFF" d="M568.8,600c0.2-1.8,0.1-3.6-0.1-5.3c-0.5-4.1-7-4.2-6.5,0c0.2,1.5,0.3,3.4,0.1,5.3H568.8z"/>
		<path fill="#FFFFFF" d="M544.9,4.8c2.1,5.8,8.6,9.9,14.7,8.5c6.6-1.5,9-7.3,9.2-13.3h-6.5c-0.1,3.2-0.9,6.6-4.4,7
			c-4,0.5-7.2-2.9-7.5-6.6c0-0.1,0-0.3,0-0.4h-6.6C544,1.6,544.3,3.2,544.9,4.8z"/>
		<path fill="#FFFFFF" d="M532.1,8.6c2.7,10.1,11.2,18.6,21.8,19.8c16.9,1.9,31.3-12.7,32.4-28.4h-6.4c-1,14.3-17,26.6-30.8,20.3
			C541.7,16.9,537.3,8,537.4,0h-6.2C531.1,2.7,531.3,5.5,532.1,8.6z"/>
		<path fill="#FFFFFF" d="M322.2,495.5c23.1,2.7,41.7-25.8,27.7-45.2c-13.3-18.5-43.5,2.6-36.7,21.7c2.1,5.8,8.6,9.9,14.7,8.5
			c8-1.8,9.9-10.1,9.1-17.2c-0.5-4.1-7-4.2-6.5,0c0.4,3.6,0.8,10.3-4.2,10.9c-4,0.5-7.2-2.9-7.5-6.6c-0.7-7.2,6.9-15,12.9-17.5
			c8.9-3.8,15.5,5.6,16.4,13.3c2,15.9-15.7,31-30.7,24.1c-8.1-3.7-12.6-14-11.5-22.5c1.1-7.8,6.7-15,9.4-22.4c1.5-4-4.8-5.6-6.3-1.7
			c-4.5,12.1-12.2,21.3-8.6,34.9C303.1,485.7,311.7,494.2,322.2,495.5z"/>
		<path fill="#FFFFFF" d="M571.5,49.1c1.5-4-4.8-5.6-6.3-1.7c-4.5,12.1-12.2,21.3-8.6,34.9c2.7,10.1,11.2,18.6,21.8,19.8
			c23.1,2.7,41.7-25.8,27.7-45.2c-13.3-18.5-43.5,2.6-36.7,21.7c2.1,5.8,8.6,9.9,14.7,8.5c8-1.8,9.9-10.1,9.1-17.2
			c-0.5-4.1-7-4.2-6.5,0c0.4,3.6,0.8,10.3-4.2,10.9c-4,0.5-7.2-2.9-7.5-6.6c-0.7-7.2,6.9-15,12.9-17.5c8.9-3.8,15.5,5.6,16.4,13.3
			c2,15.9-15.7,31-30.7,24.1c-8.1-3.7-12.6-14-11.5-22.5C563.1,63.6,568.8,56.5,571.5,49.1z"/>
		<path fill="#FFFFFF" d="M60.3,484.9c23.1,2.7,41.7-25.8,27.7-45.2c-13.3-18.5-43.5,2.6-36.7,21.7c2.1,5.8,8.6,9.9,14.7,8.5
			c8-1.8,9.9-10.1,9.1-17.2c-0.5-4.1-7-4.2-6.5,0c0.4,3.6,0.8,10.3-4.2,10.9c-4,0.5-7.2-2.9-7.5-6.6c-0.7-7.2,6.9-15,12.9-17.5
			c8.9-3.8,15.5,5.6,16.4,13.3c2,15.9-15.7,31-30.7,24.1c-8.1-3.7-12.6-14-11.5-22.5c1.1-7.8,6.7-15,9.4-22.4c1.5-4-4.8-5.6-6.3-1.7
			c-4.5,12.1-12.2,21.3-8.6,34.9C41.2,475.2,49.8,483.7,60.3,484.9z"/>
		<path fill="#FFFFFF" d="M512.2,108c4.2,0.5,4.1-6,0-6.5c-7.1-0.9-15.5,1.1-17.2,9.1c-1.4,6.1,2.8,12.7,8.5,14.7
			c19.1,6.8,40.2-23.4,21.7-36.7c-19.4-14-47.9,4.6-45.2,27.7c1.2,10.5,9.7,19.1,19.8,21.8c13.6,3.6,22.7-4.1,34.9-8.6
			c3.9-1.5,2.2-7.8-1.7-6.3c-7.4,2.7-14.5,8.3-22.4,9.4c-8.5,1.2-18.8-3.4-22.5-11.5c-6.9-15,8.2-32.8,24.1-30.7
			c7.7,1,17.1,7.5,13.3,16.4c-2.5,6-10.4,13.5-17.5,12.9c-3.7-0.3-7.2-3.5-6.6-7.5C502,107.2,508.7,107.6,512.2,108z"/>
		<path fill="#FFFFFF" d="M788.2,16.3c1.5-4-4.8-5.6-6.3-1.7c-4.5,12.1-12.2,21.3-8.6,34.9c2.7,10.1,11.2,18.6,21.8,19.8
			c1.7,0.2,3.3,0.2,4.9,0.1v-6.6c-3.2,0.3-6.5-0.1-9.7-1.6c-8.1-3.7-12.6-14-11.5-22.5C779.9,30.8,785.5,23.6,788.2,16.3z"/>
		<path fill="#FFFFFF" d="M786.1,45.7c2,5.5,8,9.5,13.9,8.7v-6.6c-0.2,0.1-0.5,0.1-0.8,0.2c-4,0.5-7.2-2.9-7.5-6.6
			c-0.5-5.4,3.7-11.1,8.3-14.8V19C790.1,23.7,782.3,35,786.1,45.7z"/>
		<path fill="#FFFFFF" d="M488,415c23.1,2.7,41.7-25.8,27.7-45.2c-13.3-18.5-43.5,2.6-36.7,21.7c2.1,5.8,8.6,9.9,14.7,8.5
			c8-1.8,9.9-10.1,9.1-17.2c-0.5-4.1-7-4.2-6.5,0c0.4,3.6,0.8,10.3-4.2,10.9c-4,0.5-7.2-2.9-7.5-6.6c-0.7-7.2,6.9-15,12.9-17.5
			c8.9-3.8,15.5,5.6,16.4,13.3c2,15.9-15.7,31-30.7,24.1c-8.1-3.7-12.6-14-11.5-22.5c1.1-7.8,6.7-15,9.4-22.4c1.5-4-4.8-5.6-6.3-1.7
			c-4.5,12.1-12.2,21.3-8.6,34.9C468.9,405.2,477.4,413.7,488,415z"/>
		<path fill="#FFFFFF" d="M104.3,18.8C98.2,28.6,86.5,34.7,75.6,37c-11.7,2.5-23.2-1.7-27.3-13.5c-1.4-4-7.7-2.3-6.3,1.7
			c7.9,22.8,33.3,22,51.3,12c14.3-7.9,22.2-22,23.3-37.3h-6.5C109.6,6.8,107.7,13.4,104.3,18.8z"/>
		<path fill="#FFFFFF" d="M59.3,5.5c9.1,7.2,22,8.7,31.3,0.9C92.3,4.9,94.2,2.7,96,0h-8.1C80.5,7.3,70.4,5.8,63,0h-9.2
			C55.4,2,57.3,3.8,59.3,5.5z"/>
		<path fill="#FFFFFF" d="M246.5,169.5c8.3,24.1,36.7,28.8,56.5,15.2c15.6-10.7,11.3-31.3-2.1-41.8c-9.1-7.2-22-8.7-31.3-0.9
			c-8.1,6.9-20.5,31.4-3.9,36.5c12.2,3.8,32.8-6.6,26.9-21.4c-1.6-4.1-5.4-7.8-10-7.7c-6,0.2-7.6,7.1-8,11.8c-0.3,4.2,6.2,4.2,6.5,0
			c0.3-3.4,1.1-7.1,4.3-3.7c3.4,3.7,1.1,8.7-2.3,11.3c-4.4,3.2-15.8,7.3-18.4,0.1c-2.2-6.2,2.4-14.3,6.1-19
			c12.8-15.9,36.4-0.4,35.8,17.1c-0.4,12.4-16.1,17.6-26.1,18.6c-13.6,1.4-24-6.9-28.3-19.4c-3.9-11.5-2.9-26.6,3.6-36.9
			c6.1-9.7,17.8-15.9,28.8-18.2c11.7-2.5,23.2,1.7,27.3,13.5c1.4,4,7.7,2.3,6.3-1.7c-7.9-22.8-33.3-22-51.3-12
			C246.2,122.5,238.9,147.4,246.5,169.5z"/>
		<path fill="#FFFFFF" d="M511.3,180.1c-7.6,22.1-0.4,46.9,20.5,58.4c18.1,9.9,43.5,10.7,51.3-12c1.4-4-4.9-5.7-6.3-1.7
			c-4.1,11.9-15.6,16.1-27.3,13.5c-10.9-2.3-22.7-8.5-28.8-18.2c-6.5-10.3-7.5-25.4-3.6-36.9c4.3-12.4,14.7-20.8,28.3-19.4
			c10,1,25.7,6.2,26.1,18.6c0.5,17.5-23,33-35.8,17.1c-3.8-4.6-8.3-12.8-6.1-19c2.6-7.2,14.1-3.1,18.4,0.1c3.4,2.5,5.7,7.6,2.3,11.3
			c-3.2,3.5-4-0.3-4.3-3.7c-0.3-4.2-6.9-4.2-6.5,0c0.4,4.7,2,11.6,8,11.8c4.7,0.1,8.4-3.6,10-7.7c5.8-14.9-14.7-25.3-26.9-21.4
			c-16.5,5.2-4.2,29.6,3.9,36.5c9.3,7.9,22.2,6.3,31.3-0.9c13.3-10.5,17.7-31,2.1-41.8C547.9,151.3,519.6,155.9,511.3,180.1z"/>
		<path fill="#FFFFFF" d="M87.9,600H96c6.7-10,11.6-26.1-1.4-30.2c-12.2-3.8-32.8,6.6-26.9,21.4c1.6,4.1,5.4,7.8,10,7.7
			c6-0.2,7.6-7.1,8-11.8c0.3-4.2-6.2-4.2-6.5,0c-0.3,3.4-1.1,7.1-4.3,3.7c-3.4-3.7-1.1-8.7,2.3-11.3c4.4-3.2,15.8-7.3,18.4-0.1
			c2.2,6.2-2.4,14.3-6.1,19C88.9,598.9,88.4,599.5,87.9,600z"/>
		<path fill="#FFFFFF" d="M113.8,578.9c-8.3-24.1-36.7-28.8-56.5-15.2c-13.2,9.1-12.1,25.2-3.4,36.3H63c-5.7-4.5-9.7-11.4-9.5-18.8
			c0.4-12.4,16.1-17.6,26.1-18.6c13.6-1.4,24,6.9,28.3,19.4c1.9,5.5,2.6,11.8,2.2,18.1h6.5C117.1,593,116.1,585.8,113.8,578.9z"/>
		<path fill="#FFFFFF" d="M715.2,90.2c-11.7,2.5-23.2-1.7-27.3-13.5c-1.4-4-7.7-2.3-6.3,1.7c7.9,22.8,33.3,22,51.3,12
			C753.8,78.9,761,54.1,753.4,32c-8.3-24.1-36.7-28.8-56.5-15.2c-15.6,10.7-11.3,31.3,2.1,41.8c9.1,7.2,22,8.7,31.3,0.9
			c8.1-6.9,20.5-31.4,3.9-36.5c-12.2-3.8-32.8,6.6-26.9,21.4c1.6,4.1,5.4,7.8,10,7.7c6-0.2,7.6-7.1,8-11.8c0.3-4.2-6.2-4.2-6.5,0
			c-0.3,3.4-1.1,7.1-4.3,3.7c-3.4-3.7-1.1-8.7,2.3-11.3c4.4-3.2,15.8-7.3,18.4-0.1c2.2,6.2-2.4,14.3-6.1,19
			c-12.8,15.9-36.4,0.4-35.8-17.1c0.4-12.4,16.1-17.6,26.1-18.6c13.6-1.4,24,6.9,28.3,19.4c3.9,11.5,2.9,26.6-3.6,36.9
			C737.9,81.7,726.2,87.8,715.2,90.2z"/>
		<path fill="#FFFFFF" d="M204,191c4.1-1,2.4-7.3-1.7-6.3c-21.1,5.1-47.3,20.8-47.5,45.2c-0.1,9.7,5.2,19.5,14,23.8
			c9.3,4.6,21.2,1.1,27.7-6.5c5.9-6.8,8.9-18.7,4.4-27c-4.5-8.3-15.3-13.9-23.4-7.2c-7,5.8-7.7,19.5-1.8,26c2,2.2,6,3.4,8.7,1.9
			c3.6-2.1,4.3-6,4.3-10c0-4.2-6.6-4.2-6.5,0c0,2.4-0.4,5.8-2.7,2.4c-2.2-3.2-1-7.7,0-11c3-10.5,14.1-4.6,16.5,3.1
			c4.4,14.2-11.9,28.5-25.2,21.9c-12.9-6.3-10.7-24.1-4-33.8C175,201.8,190.4,194.3,204,191z"/>
		<path fill="#FFFFFF" d="M769.2,579c3.6-2.2,0.4-7.9-3.2-5.7c-11.9,7.3-28.1,12.8-42.2,10.3c-11.6-2.1-25.7-13.1-21.1-26.7
			c4.8-14,26.4-15.5,33.3-2.3c3.7,7.1,0,19.1-9.5,13.9c-3-1.7-7-4.1-7.7-7.8c-0.8-4,1.9-2,3.6-0.2c3,3,7.6-1.6,4.6-4.6
			c-2.8-2.8-6-5.1-10.1-4c-3,0.8-5,4.5-4.8,7.5c0.5,8.8,10.7,17.9,19.7,17.1c10.5-0.9,14.1-12.5,11.5-21.6
			c-2.7-9-13.2-15.2-22.2-15.9c-10-0.8-20.9,5.2-24.2,15c-3.2,9.3,0,19.9,6.9,26.7C721,597.7,750.7,590.4,769.2,579z"/>
		<path fill="#FFFFFF" d="M466.4,261.6c4.1-1,2.4-7.3-1.7-6.3c-21.1,5.1-47.3,20.8-47.5,45.2c-0.1,9.7,5.2,19.5,14,23.8
			c9.3,4.6,21.2,1.1,27.7-6.5c5.9-6.8,8.9-18.7,4.4-27c-4.5-8.3-15.3-13.9-23.4-7.2c-7,5.8-7.7,19.5-1.8,26c2,2.2,6,3.4,8.7,1.9
			c3.6-2.1,4.3-6,4.3-10c0-4.2-6.6-4.2-6.5,0c0,2.4-0.4,5.8-2.7,2.4c-2.2-3.2-1-7.7,0-11c3-10.5,14.1-4.6,16.5,3.1
			c4.4,14.2-11.9,28.5-25.2,21.9c-12.9-6.3-10.7-24.1-4-33.8C437.5,272.4,452.9,264.8,466.4,261.6z"/>
		<path fill="#FFFFFF" d="M794.2,398.9c4.1-1,2.4-7.3-1.7-6.3c-21.1,5.1-47.3,20.8-47.5,45.2c-0.1,9.7,5.2,19.5,14,23.8
			c9.3,4.6,21.2,1.1,27.7-6.5c5.9-6.8,8.9-18.7,4.4-27c-4.5-8.3-15.3-13.9-23.4-7.2c-7,5.8-7.7,19.5-1.8,26c2,2.2,6,3.4,8.7,1.9
			c3.6-2.1,4.3-6,4.3-10c0-4.2-6.6-4.2-6.5,0c0,2.4-0.4,5.8-2.7,2.4c-2.2-3.2-1-7.7,0-11c3-10.5,14.1-4.6,16.5,3.1
			c4.4,14.2-11.9,28.5-25.2,21.9c-12.9-6.3-10.7-24.1-4-33.8C765.2,409.7,780.6,402.1,794.2,398.9z"/>
		<path fill="#FFFFFF" d="M704.2,157c-11.3,18.5-18.7,48.1-1.6,65.5c6.8,6.9,17.4,10.1,26.7,6.9c9.8-3.3,15.8-14.3,15-24.2
			c-0.7-9-6.9-19.5-15.9-22.2c-9.1-2.7-20.7,1-21.6,11.5c-0.8,9,8.3,19.2,17.1,19.7c3,0.2,6.7-1.8,7.5-4.8c1.1-4.1-1.2-7.3-4-10.1
			c-3-3-7.6,1.7-4.6,4.6c1.7,1.7,3.8,4.4-0.2,3.6c-3.8-0.7-6.1-4.7-7.8-7.7c-5.3-9.5,6.7-13.2,13.9-9.5c13.2,6.9,11.7,28.6-2.3,33.3
			c-13.6,4.6-24.6-9.5-26.7-21.1c-2.6-14.1,3-30.3,10.3-42.2C712.1,156.6,706.4,153.4,704.2,157z"/>
		<path fill="#FFFFFF" d="M612.2,172.1c13.6,3.3,29,10.8,37.1,22.6c6.7,9.7,8.9,27.5-4,33.8c-13.3,6.5-29.6-7.7-25.2-21.9
			c2.4-7.7,13.5-13.6,16.5-3.1c1,3.3,2.1,7.8,0,11c-2.3,3.4-2.7,0-2.7-2.4c0-4.2-6.5-4.2-6.5,0c0,3.9,0.7,7.9,4.3,10
			c2.7,1.6,6.7,0.4,8.7-1.9c5.9-6.6,5.1-20.2-1.8-26c-8.1-6.7-18.9-1.1-23.4,7.2c-4.5,8.3-1.4,20.1,4.4,27
			c6.5,7.6,18.5,11.1,27.7,6.5c8.8-4.3,14.1-14.1,14-23.8c-0.2-24.3-26.4-40.1-47.5-45.2C609.8,164.8,608.1,171.1,612.2,172.1z"/>
		<path fill="#FFFFFF" d="M422.7,95.8c-8.4-3.1-20.6-2-26.8,5.1c-6.2,7.1-7.8,19.2,1.3,24.4c7.9,4.5,20.9,0.5,25.1-7.3
			c1.4-2.6,1.2-6.8-1.3-8.8c-3.2-2.7-7.2-2-10.8-0.6c-3.9,1.5-1.7,7.6,2.3,6.1c2.3-0.9,5.6-1.6,3.2,1.7c-2.2,3.1-6.8,3.6-10.3,3.8
			c-10.9,0.8-9.2-11.7-2.8-16.6c11.8-9.1,30.8,1.3,29.3,16c-1.5,14.3-19,18.3-30.4,15.4c-13.9-3.6-26.3-15.4-34-27.1
			c-2.3-3.5-7.6,0.3-5.3,3.8c12,18,35.9,37.2,58.8,29c9.1-3.3,16.5-11.6,17.5-21.3C439.5,109.3,432.1,99.3,422.7,95.8z"/>
		<path fill="#FFFFFF" d="M633,0h-7.2c-4.2,9.1-5.6,18.9-2.1,28.7c3.3,9.1,11.6,16.5,21.3,17.5c10.3,1.1,20.3-6.3,23.8-15.7
			c3.1-8.4,2-20.6-5.1-26.8c-1.7-1.5-3.8-2.8-6-3.7h-13.3c-2,1-3.8,2.7-5.1,5c-4.5,7.9-0.5,20.9,7.3,25.1c2.6,1.4,6.8,1.2,8.8-1.3
			c2.7-3.2,2-7.2,0.6-10.8c-1.5-3.9-7.6-1.7-6.1,2.3c0.9,2.3,1.6,5.6-1.7,3.2c-3.1-2.2-3.6-6.8-3.8-10.3
			c-0.8-10.9,11.7-9.2,16.6-2.8c9.1,11.8-1.3,30.8-16,29.3c-14.3-1.5-18.3-19-15.4-30.4C630.2,6,631.5,3,633,0z"/>
		<path fill="#FFFFFF" d="M644.4,600h13.3C653.3,598.2,648.4,598,644.4,600z"/>
		<path fill="#FFFFFF" d="M656.4,575.2c3.5-2.3-0.3-7.6-3.8-5.3c-10.4,6.9-21.1,17.8-26.8,30.1h7.2
			C638.4,589.9,647.5,581.2,656.4,575.2z"/>
		<path fill="#FFFFFF" d="M250.1,82.3c-4.1,1-2.4,7.3,1.7,6.3c21.1-5.1,47.3-20.8,47.5-45.2c0.1-9.7-5.2-19.5-14-23.8
			c-9.3-4.6-21.2-1.1-27.7,6.5c-5.9,6.8-8.9,18.7-4.4,27c4.5,8.3,15.3,13.9,23.4,7.2c7-5.8,7.7-19.5,1.8-26c-2-2.2-6-3.4-8.7-1.9
			c-3.6,2.1-4.3,6-4.3,10c0,4.2,6.6,4.2,6.5,0c0-2.4,0.4-5.8,2.7-2.4c2.2,3.2,1,7.7,0,11c-3,10.5-14.1,4.6-16.5-3.1
			c-4.4-14.2,11.9-28.5,25.2-21.9c12.9,6.3,10.7,24.1,4,33.8C279.1,71.5,263.7,79,250.1,82.3z"/>
		<path fill="#FFFFFF" d="M31.3,361.9c0-4.2-6.5-4.2-6.5,0c0,3.9,0.7,7.9,4.3,10c2.7,1.6,6.7,0.4,8.7-1.9c5.9-6.6,5.1-20.2-1.8-26
			c-8.1-6.7-18.9-1.1-23.4,7.2c-4.5,8.3-1.4,20.1,4.4,27c6.5,7.6,18.5,11.1,27.7,6.5c8.8-4.3,14.1-14.1,14-23.8
			c-0.2-24.3-26.4-40.1-47.5-45.2c-4.1-1-5.8,5.3-1.7,6.3c13.6,3.3,29,10.8,37.1,22.6c6.7,9.7,8.9,27.5-4,33.8
			c-13.3,6.5-29.6-7.7-25.2-21.9c2.4-7.7,13.5-13.6,16.5-3.1c1,3.3,2.1,7.8,0,11C31.7,367.7,31.3,364.3,31.3,361.9z"/>
		<path fill="#FFFFFF" d="M143.2,564.6c9.7,0.1,19.5-5.2,23.8-14c4.6-9.3,1.1-21.2-6.5-27.7c-6.8-5.9-18.7-8.9-27-4.4
			c-8.3,4.5-13.9,15.3-7.2,23.4c5.8,7,19.5,7.7,26,1.8c2.2-2,3.4-6,1.9-8.7c-2.1-3.6-6-4.3-10-4.3c-4.2,0-4.2,6.6,0,6.5
			c2.4,0,5.8,0.4,2.4,2.7c-3.2,2.2-7.7,1-11,0c-10.5-3-4.6-14.1,3.1-16.5c14.2-4.4,28.5,11.9,21.9,25.2c-6.3,12.9-24.1,10.7-33.8,4
			c-11.8-8.2-19.3-23.6-22.6-37.1c-1-4.1-7.3-2.4-6.3,1.7C103.1,538.2,118.9,564.5,143.2,564.6z"/>
		<path fill="#FFFFFF" d="M604,475.5c9.7,0.1,19.5-5.2,23.8-14c4.6-9.3,1.1-21.2-6.5-27.7c-6.8-5.9-18.7-8.9-27-4.4
			c-8.3,4.5-13.9,15.3-7.2,23.4c5.8,7,19.5,7.7,26,1.8c2.2-2,3.4-6,1.9-8.7c-2.1-3.6-6-4.3-10-4.3c-4.2,0-4.2,6.6,0,6.5
			c2.4,0,5.8,0.4,2.4,2.7c-3.2,2.2-7.7,1-11,0c-10.5-3-4.6-14.1,3.1-16.5c14.2-4.4,28.5,11.9,21.9,25.2c-6.3,12.9-24.1,10.7-33.8,4
			c-11.8-8.2-19.3-23.6-22.6-37.1c-1-4.1-7.3-2.4-6.3,1.7C564,449.1,579.7,475.3,604,475.5z"/>
		<path fill="#FFFFFF" d="M115.3,95.3c-18.5-11.3-48.1-18.7-65.5-1.6c-6.9,6.8-10.1,17.4-6.9,26.7c3.3,9.8,14.3,15.8,24.2,15
			c9-0.7,19.5-6.9,22.2-15.9c2.7-9.1-1-20.7-11.5-21.6c-9-0.8-19.2,8.3-19.7,17.1c-0.2,3,1.8,6.7,4.8,7.5c4.1,1.1,7.3-1.2,10.1-4
			c3-3-1.7-7.6-4.6-4.6c-1.7,1.7-4.4,3.8-3.6-0.2c0.7-3.8,4.7-6.1,7.7-7.8c9.5-5.3,13.2,6.7,9.5,13.9c-6.9,13.2-28.6,11.7-33.3-2.3
			c-4.6-13.6,9.5-24.6,21.1-26.7c14.1-2.6,30.3,3,42.2,10.3C115.6,103.1,118.9,97.5,115.3,95.3z"/>
		<path fill="#FFFFFF" d="M19.2,163.7c-4,1.3-2.3,7.6,1.7,6.3c9.4-3,14.1,9.3,16.5,16.2c3.5,10.3,5.1,21.4,5.4,32.2
			c0.3,9.9-1.8,19.6-11.5,24.4c-10.2,5-22.9-0.1-30.1-7.8c-0.5-0.5-0.9-1.1-1.3-1.6v9.4c0.2,0.2,0.3,0.3,0.5,0.5
			c9.7,8.1,23.8,10.3,35.2,4.7c11.2-5.6,13.9-18.2,13.6-29.5C49.1,203.6,44,155.7,19.2,163.7z"/>
		<path fill="#FFFFFF" d="M0,183.8v7.3c0.9-0.5,2-0.9,3.3-1.3c7.1-1.9,15.4,1.7,20.6,6.4c3.6,3.3,9.1,18.2,1.5,20.5
			c-4.8,1.5-11.1-2.1-14.5-5.2c-7.9-7.2,6.4-8,11.2-8.2c4.2-0.1,4.2-6.7,0-6.5c-6.2,0.2-16.3,0.5-19.6,7.1c-2.4,4.9,1.1,9.9,4.7,13
			c7.9,6.7,24.8,11,27.8-2.8c2-9-2-19.7-9.4-25C18.8,184.3,8.5,181.2,0,183.8z"/>
		<path fill="#FFFFFF" d="M280.8,561.3c4.3-4.6,11.2-11.9,8.8-18.9c-1.8-5.2-7.8-6.2-12.6-5.9c-10.3,0.8-25.3,9.8-17.7,21.7
			c5,7.7,15.3,12.5,24.3,11c10.6-1.7,23.1-9.5,24-21.4c0.7-9.7-10.7-18.9-17.2-24.7c-7.7-6.9-16.7-10.8-27.2-9.9
			c-12.6,1.1-24.2,9.5-28.2,21.6c-4,11.9,3,22.7,11.2,30.5c10.7,10.3,48.1,40.5,60,17.3c1.9-3.7-3.8-7-5.7-3.2
			c-4.5,8.8-16.5,3.4-23.1,0.2c-9.8-4.8-18.7-11.5-26.6-18.9c-7.3-6.8-12.6-15.1-9.2-25.4c3.6-10.7,16.3-16.2,26.8-15.7
			c11.7,0.5,20.7,10.4,27.8,18.6c4.3,4.9,6.4,8.6,2.8,14.7c-3.7,6.3-12.1,9.7-19.1,10c-4.9,0.2-19.3-6.4-15.6-13.4
			c2.4-4.5,9.3-6.4,13.9-6.6c10.6-0.5,1.2,10.1-2.1,13.7C273.3,559.7,277.9,564.3,280.8,561.3z"/>
		<path fill="#FFFFFF" d="M457.7,567.1c-3.1-2.9-7.7,1.7-4.6,4.6c4.6,4.3,11.9,11.2,18.9,8.8c5.2-1.8,6.2-7.8,5.9-12.6
			c-0.8-10.3-9.8-25.3-21.7-17.7c-7.7,5-12.5,15.3-11,24.3c1.7,10.6,9.5,23.1,21.4,24c9.7,0.7,18.9-10.7,24.7-17.2
			c6.9-7.7,10.8-16.7,9.9-27.2c-1.1-12.6-9.5-24.2-21.6-28.2c-11.9-4-22.7,3-30.5,11.2c-10.3,10.7-40.5,48.1-17.3,60
			c3.7,1.9,7-3.8,3.2-5.7c-8.8-4.5-3.4-16.5-0.2-23.1c4.8-9.8,11.5-18.7,18.9-26.6c6.8-7.3,15.1-12.6,25.4-9.2
			c10.7,3.6,16.2,16.3,15.7,26.8c-0.5,11.7-10.4,20.7-18.6,27.8c-4.9,4.3-8.6,6.4-14.7,2.8c-6.3-3.7-9.7-12.1-10-19.1
			c-0.2-4.9,6.4-19.3,13.4-15.6c4.5,2.4,6.4,9.3,6.6,13.9C471.9,579.9,461.2,570.4,457.7,567.1z"/>
		<path fill="#FFFFFF" d="M800,242.8v-9.4c-6.5-8.6-5.9-21-5.2-31.2c0.4-5.3,1.2-9,5.2-11.1v-7.3c-2.3,0.7-4.5,1.9-6.4,3.6
			c-7.4,6.4-5.8,21-5.3,29.6C788.8,227.1,792.3,236,800,242.8z"/>
		<path fill="#FFFFFF" d="M228.3,263.2c0.6,10.4,4.2,19.4,12.3,26.2c9.7,8.1,23.8,10.3,35.2,4.7c11.2-5.6,13.9-18.2,13.6-29.5
			c-0.3-14.8-5.4-62.7-30.2-54.7c-4,1.3-2.3,7.6,1.7,6.3c9.4-3,14.1,9.3,16.5,16.2c3.5,10.3,5.1,21.4,5.4,32.2
			c0.3,9.9-1.8,19.6-11.5,24.4c-10.2,5-22.9-0.1-30.1-7.8c-7.9-8.6-7.3-22-6.5-32.8c0.5-6.5,1.6-10.6,8.4-12.4
			c7.1-1.9,15.4,1.7,20.6,6.4c3.6,3.3,9.1,18.2,1.5,20.5c-4.8,1.5-11.1-2.1-14.5-5.2c-7.9-7.2,6.4-8,11.2-8.2c4.2-0.1,4.2-6.7,0-6.5
			c-6.2,0.2-16.3,0.5-19.6,7.1c-2.4,4.9,1.1,9.9,4.7,13c7.9,6.7,24.8,11,27.8-2.8c2-9-2-19.7-9.4-25c-8.7-6.3-23.1-9.6-32.1-1.8
			C226.2,240,227.8,254.6,228.3,263.2z"/>
		<path fill="#FFFFFF" d="M565.2,394.3c9.7,8.1,23.8,10.3,35.2,4.7c11.2-5.6,13.9-18.2,13.6-29.5c-0.3-14.8-5.4-62.7-30.2-54.7
			c-4,1.3-2.3,7.6,1.7,6.3c9.4-3,14.1,9.3,16.5,16.2c3.5,10.3,5.1,21.4,5.4,32.2c0.3,9.9-1.8,19.6-11.5,24.4
			c-10.2,5-22.9-0.1-30.1-7.8c-7.9-8.6-7.3-22-6.5-32.8c0.5-6.5,1.6-10.6,8.4-12.4c7.1-1.9,15.4,1.7,20.6,6.4
			c3.6,3.3,9.1,18.2,1.5,20.5c-4.8,1.5-11.1-2.1-14.5-5.2c-7.9-7.2,6.4-8,11.2-8.2c4.2-0.1,4.2-6.7,0-6.5
			c-6.2,0.2-16.3,0.5-19.6,7.1c-2.4,4.9,1.1,9.9,4.7,13c7.9,6.7,24.8,11,27.8-2.8c2-9-2-19.7-9.4-25c-8.7-6.3-23.1-9.6-32.1-1.8
			c-7.4,6.4-5.8,21-5.3,29.6C553.5,378.5,557.1,387.5,565.2,394.3z"/>
		<path fill="#FFFFFF" d="M756.8,303.1c10.4-4.5,20.8-12.2,21.2-24.7c0.4-12.7-7.5-24.6-18.9-30.1c-9.6-4.6-19.3-4-29-0.3
			c-8.1,3.2-22,7.8-24.7,17.2c-3.3,11.4,5.7,23.1,15,28.4c7.9,4.5,19.3,3.7,26.6-1.8c11.3-8.5,0.4-22.1-9-26.5
			c-4.3-2-10.4-3.1-13.8,1.1c-4.7,5.7-0.8,15,1.6,20.7c1.6,3.9,7.6,1.2,5.9-2.7c-1.9-4.5-7-17.7,2.8-13.6c4.3,1.8,10.1,6,10.8,11.1
			c1,7.9-14.8,9-19.3,7.1c-6.4-2.7-13.1-8.8-14.4-16c-1.2-7,2.1-9.7,7.8-12.8c9.5-5.2,21.4-11.4,32.5-7.7c10,3.3,20,12.8,19.6,24.1
			c-0.3,10.8-8.3,16.7-17.4,20.6c-10,4.2-20.7,7.4-31.6,8.4c-7.3,0.7-20.4,1.6-21.6-8.3c-0.5-4.2-6.9-3.1-6.4,1
			C697.5,324.3,743.2,309,756.8,303.1z"/>
		<path fill="#FFFFFF" d="M114.7,158.4c-8-5.1-19.2-3.3-28.1-3.4c-4.2,0-4.2,6.5,0,6.5c12.2,0.1,24.9-2.1,31.6,10.4
			c7.4,13.6-0.8,32.1-15.7,35.7c-5.7,1.3-12.1-0.8-15.3-5.7c-3.7-5.7-0.1-14.1,4.1-18.5c3-3.2,7.5-2.8,10.4,0.2
			c3.9,4.1-3.4,6.3-6.2,6.8c-4.1,0.8-2.4,7.1,1.7,6.3c6-1.2,12.8-4.8,11.8-11.9c-0.8-6.1-6.5-9.7-12.2-10.2
			c-8.8-0.8-14.4,8.5-16.7,15.6c-2.8,8.4,0.7,16.9,8,21.5c7.4,4.6,17,3,24.2-0.9c9.6-5.2,14.3-16.2,15-26.6
			C128,174.2,123,163.7,114.7,158.4z"/>
		<path fill="#FFFFFF" d="M178.8,456c0.6-9.8-4.3-20.4-12.7-25.7c-8-5.1-19.2-3.3-28.1-3.4c-4.2,0-4.2,6.5,0,6.5
			c12.2,0.1,24.9-2.1,31.6,10.4c7.4,13.6-0.8,32.1-15.7,35.7c-5.7,1.3-12.1-0.8-15.3-5.7c-3.7-5.7-0.1-14.1,4.1-18.5
			c3-3.2,7.5-2.8,10.4,0.2c3.9,4.1-3.4,6.3-6.2,6.8c-4.1,0.8-2.4,7.1,1.7,6.3c6-1.2,12.8-4.8,11.8-11.9c-0.8-6.1-6.5-9.7-12.2-10.2
			c-8.8-0.8-14.4,8.5-16.7,15.6c-2.8,8.4,0.7,16.9,8,21.5c7.4,4.6,17,3,24.2-0.9C173.4,477.4,178.2,466.4,178.8,456z"/>
		<path fill="#FFFFFF" d="M461,49.7c-4.1,0.8-2.4,7.1,1.7,6.3c6-1.2,12.8-4.8,11.8-11.9c-0.8-6.1-6.5-9.7-12.2-10.2
			c-8.8-0.8-14.4,8.5-16.7,15.6c-2.8,8.4,0.7,16.9,8,21.5c7.4,4.6,17,3,24.2-0.9c9.6-5.2,14.3-16.2,15-26.6
			c0.6-9.8-4.3-20.4-12.7-25.7c-8-5.1-19.2-3.3-28.1-3.4c-4.2,0-4.2,6.5,0,6.5c12.2,0.1,24.9-2.1,31.6,10.4
			c7.4,13.6-0.8,32.1-15.7,35.7c-5.7,1.3-12.1-0.8-15.3-5.7c-3.7-5.7-0.1-14.1,4.1-18.5c3-3.2,7.5-2.8,10.4,0.2
			C471,47,463.8,49.1,461,49.7z"/>
		<path fill="#FFFFFF" d="M337,296.5c-4.1,0.8-2.4,7.1,1.7,6.3c6-1.2,12.8-4.8,11.8-11.9c-0.8-6.1-6.5-9.7-12.2-10.2
			c-8.8-0.8-14.4,8.5-16.7,15.6c-2.8,8.4,0.7,16.9,8,21.5c7.4,4.6,17,3,24.2-0.9c9.6-5.2,14.3-16.2,15-26.6
			c0.6-9.8-4.3-20.4-12.7-25.7c-8-5.1-19.2-3.3-28.1-3.4c-4.2,0-4.2,6.5,0,6.5c12.2,0.1,24.9-2.1,31.6,10.4
			c7.4,13.6-0.8,32.1-15.7,35.7c-5.7,1.3-12.1-0.8-15.3-5.7c-3.7-5.7-0.1-14.1,4.1-18.5c3-3.2,7.5-2.8,10.4,0.2
			C347,293.8,339.8,296,337,296.5z"/>
		<path fill="#FFFFFF" d="M113.7,403.2c9.6,2.2,20.6-1.8,27.1-9.2c6.9-7.8,11.3-19,8.2-29.4c-2.3-7.9-8-15.8-16.5-17.7
			c-8.4-1.9-16.9,1.6-20.9,9.5c-3.3,6.6-6,17.2,0.8,22.8c4.4,3.6,11,5.1,15.9,1.4c5.8-4.4,3.5-11.7,0.1-16.8c-2.3-3.5-8-0.3-5.7,3.2
			c1.6,2.4,5.2,9-0.5,9.2c-4.2,0.1-7.6-2.7-7.5-7.2c0.1-6,3.5-14.5,10.2-16c5.7-1.2,11.8,1.8,14.9,6.8c8.1,13,0.7,31.9-14.1,36.3
			c-13.6,4-21-6.4-29.7-15c-3-3-7.6,1.7-4.6,4.6C97.8,392,104.5,401.1,113.7,403.2z"/>
		<path fill="#FFFFFF" d="M768.1,346.8c4.1-0.8,2.4-7.1-1.7-6.3c-6,1.2-12.8,4.8-11.8,11.9c0.8,6.1,6.5,9.7,12.2,10.2
			c8.8,0.8,14.4-8.5,16.7-15.6c2.8-8.4-0.7-16.9-8-21.5c-7.4-4.6-17-3-24.2,0.9c-9.6,5.2-14.3,16.2-15,26.6
			c-0.6,9.8,4.3,20.4,12.7,25.7c8,5.1,19.2,3.3,28.1,3.4c4.2,0,4.2-6.5,0-6.5c-12.2-0.1-24.9,2.1-31.6-10.4
			c-7.4-13.6,0.8-32.1,15.7-35.7c5.7-1.3,12.1,0.8,15.3,5.7c3.7,5.7,0.1,14.1-4.1,18.5c-3,3.2-7.5,2.8-10.4-0.2
			C758.1,349.5,765.3,347.3,768.1,346.8z"/>
		<path fill="#FFFFFF" d="M416.4,401.6c3.3-6.6,6-17.2-0.8-22.8c-4.4-3.6-11-5.1-15.9-1.4c-5.8,4.4-3.5,11.7-0.1,16.8
			c2.3,3.5,8,0.3,5.7-3.2c-1.6-2.4-5.2-9,0.5-9.2c4.2-0.1,7.6,2.7,7.5,7.2c-0.1,6-3.5,14.5-10.2,16c-5.7,1.2-11.8-1.8-14.9-6.8
			c-8.1-13-0.7-31.9,14.1-36.3c13.6-4,21,6.4,29.7,15c3,3,7.6-1.7,4.6-4.6c-6.3-6.3-13-15.4-22.2-17.5c-9.6-2.2-20.6,1.8-27.1,9.2
			c-6.9,7.8-11.3,19-8.2,29.4c2.3,7.9,8,15.8,16.5,17.7C403.9,413.1,412.4,409.5,416.4,401.6z"/>
		<path fill="#FFFFFF" d="M642.3,337.6c-3.8,1.8-1,7.7,2.8,5.9c8-3.9,18.9-7.1,23.9-15.1c5.3-8.4,5.2-20,0.4-28.6
			c-5.1-9.1-14.1-17-25-17.6c-8.2-0.5-17.6,2.3-22.2,9.6c-4.6,7.3-4.1,16.5,2,22.8c5.1,5.3,14.2,11.4,21.8,6.9
			c4.9-2.9,8.5-8.7,6.6-14.5c-2.2-6.9-9.8-7.2-15.8-5.7c-4.1,1-2.9,7.5,1.1,6.4c2.7-0.7,10.2-1.9,8.5,3.5c-1.3,4-5.1,6.2-9.2,4.7
			c-5.6-2.2-12.5-8.1-11.7-14.9c0.8-5.8,5.6-10.5,11.3-11.7c15-3.3,30.3,10,29.5,25.4C665.7,328.8,653.3,332.3,642.3,337.6z"/>
		<path fill="#FFFFFF" d="M224.3,474.7c7.4,0.1,18.1-2,20.2-10.5c1.4-5.5-0.1-12.1-5.6-14.9c-6.4-3.3-12.1,1.9-15.2,7.1
			c-2.1,3.6,3.2,7.4,5.4,3.7c1.4-2.4,5.9-8.5,8.5-3.5c1.9,3.7,0.8,8-3.2,9.8c-5.5,2.5-14.6,3.1-18.8-2.3c-3.6-4.7-3.4-11.4-0.3-16.3
			c8.3-12.9,28.5-14.4,38.9-2.9c9.5,10.5,3.2,21.7-0.8,33.3c-1.4,4,4.8,6.2,6.2,2.2c2.9-8.4,8.3-18.4,6.2-27.6
			c-2.2-9.6-10.5-17.8-19.9-20.5c-10-2.9-22-2.1-30.1,5.2c-6.1,5.5-10.8,14-8.9,22.5C208.6,468.3,215.5,474.5,224.3,474.7z"/>
		<path fill="#FFFFFF" d="M646,104.7c13.6-4,21,6.4,29.7,15c3,3,7.6-1.7,4.6-4.6c-6.3-6.3-13-15.4-22.2-17.5
			c-9.6-2.2-20.6,1.8-27.1,9.2c-6.9,7.8-11.3,19-8.2,29.4c2.3,7.9,8,15.8,16.5,17.7c8.4,1.9,16.9-1.6,20.9-9.5
			c3.3-6.6,6-17.2-0.8-22.8c-4.4-3.6-11-5.1-15.9-1.4c-5.8,4.4-3.5,11.7-0.1,16.8c2.3,3.5,8,0.3,5.7-3.2c-1.6-2.4-5.2-9,0.5-9.2
			c4.2-0.1,7.6,2.7,7.5,7.2c-0.1,6-3.5,14.5-10.2,16c-5.7,1.2-11.8-1.8-14.9-6.8C623.8,127.9,631.2,109.1,646,104.7z"/>
		<path fill="#FFFFFF" d="M527.4,494.6c0.8,4.1,7.1,2.4,6.3-1.7c-1.2-6-4.8-12.8-11.9-11.8c-6.1,0.8-9.7,6.5-10.2,12.2
			c-0.8,8.8,8.5,14.4,15.6,16.7c8.4,2.8,16.9-0.7,21.5-8c4.6-7.4,3-17-0.9-24.2c-5.2-9.6-16.2-14.3-26.6-15
			c-9.8-0.6-20.4,4.3-25.7,12.7c-5.1,8-3.3,19.2-3.4,28.1c0,4.2,6.5,4.2,6.5,0c0.1-12.2-2.1-24.9,10.4-31.6
			c13.6-7.4,32.1,0.8,35.7,15.7c1.3,5.7-0.8,12.1-5.7,15.3c-5.7,3.7-14.1,0.1-18.5-4.1c-3.2-3-2.8-7.5,0.2-10.4
			C524.7,484.5,526.8,491.8,527.4,494.6z"/>
		<path fill="#FFFFFF" d="M701.3,496.1c0.8,4.1,7.1,2.4,6.3-1.7c-1.2-6-4.8-12.8-11.9-11.8c-6.1,0.8-9.7,6.5-10.2,12.2
			c-0.8,8.8,8.5,14.4,15.6,16.7c8.4,2.8,16.9-0.7,21.5-8c4.6-7.4,3-17-0.9-24.2c-5.2-9.6-16.2-14.3-26.6-15
			c-9.8-0.6-20.4,4.3-25.7,12.7c-5.1,8-3.3,19.2-3.4,28.1c0,4.2,6.5,4.2,6.5,0c0.1-12.2-2.1-24.9,10.4-31.6
			c13.6-7.4,32.1,0.8,35.7,15.7c1.3,5.7-0.8,12.1-5.7,15.3c-5.7,3.7-14.1,0.1-18.5-4.1c-3.2-3-2.8-7.5,0.2-10.4
			C698.6,486.1,700.8,493.3,701.3,496.1z"/>
		<path fill="#FFFFFF" d="M350.4,589.8c9.6,2.2,20.6-1.8,27.1-9.2c6.9-7.8,11.3-19,8.2-29.4c-2.3-7.9-8-15.8-16.5-17.7
			c-8.4-1.9-16.9,1.6-20.9,9.5c-3.3,6.6-6,17.2,0.8,22.8c4.4,3.6,11,5.1,15.9,1.4c5.8-4.4,3.5-11.7,0.1-16.8c-2.3-3.5-8-0.3-5.7,3.2
			c1.6,2.4,5.2,9-0.5,9.2c-4.2,0.1-7.6-2.7-7.5-7.2c0.1-6,3.5-14.5,10.2-16c5.7-1.2,11.8,1.8,14.9,6.8c8.1,13,0.7,31.9-14.1,36.3
			c-13.6,4-21-6.4-29.7-15c-3-3-7.6,1.7-4.6,4.6C334.4,578.6,341.1,587.8,350.4,589.8z"/>
		<path fill="#FFFFFF" d="M207.2,589.9c-5.6,0.5-11.2,4.1-12.2,10.1h6.6c0.2-0.3,0.4-0.7,0.7-1c2.9-3,7.3-3.4,10.4-0.2
			c0.4,0.4,0.7,0.8,1.1,1.2h7.7C218.6,594.4,213.8,589.3,207.2,589.9z"/>
		<path fill="#FFFFFF" d="M185.9,587.3c6.8-12.5,19.4-10.3,31.6-10.4c4.2,0,4.2-6.6,0-6.5c-8.9,0-20.1-1.7-28.1,3.4
			c-8.3,5.3-13.3,15.8-12.7,25.7c0,0.2,0,0.4,0,0.5h6.4C182.9,595.7,183.7,591.3,185.9,587.3z"/>
		<path fill="#FFFFFF" d="M195.1,0c0,0.1,0,0.1,0,0.2c-1,7.2,5.8,10.7,11.8,11.9c4.1,0.8,5.9-5.5,1.7-6.3c-2.6-0.5-8.8-2.4-6.9-5.8
			H195.1z"/>
		<path fill="#FFFFFF" d="M191.7,26.1c7.2,3.9,16.8,5.5,24.2,0.9c7.3-4.6,10.8-13.1,8-21.5c-0.6-1.8-1.4-3.7-2.4-5.5h-7.7
			c3.7,4.6,6.4,12,3,17.2c-3.2,4.9-9.6,7.1-15.3,5.7c-10.6-2.5-17.7-12.5-18.4-23h-6.4C177.6,10.2,182.3,21,191.7,26.1z"/>
		<path fill="#FFFFFF" d="M431.6,200.7c0.7,10.4,5.4,21.4,15,26.6c7.2,3.9,16.8,5.5,24.2,0.9c7.3-4.6,10.8-13.1,8-21.5
			c-2.4-7-7.9-16.4-16.7-15.6c-5.7,0.5-11.4,4.2-12.2,10.2c-1,7.2,5.8,10.7,11.8,11.9c4.1,0.8,5.9-5.5,1.7-6.3
			c-2.8-0.5-10-2.7-6.2-6.8c2.9-3,7.3-3.4,10.4-0.2c4.2,4.4,7.8,12.7,4.1,18.5c-3.2,4.9-9.6,7.1-15.3,5.7
			c-14.9-3.5-23.1-22-15.7-35.7c6.8-12.5,19.4-10.3,31.6-10.4c4.2,0,4.2-6.6,0-6.5c-8.9,0-20.1-1.7-28.1,3.4
			C436,180.3,431,190.9,431.6,200.7z"/>
		<path fill="#FFFFFF" d="M606.3,557c9.8,0.6,20.4-4.3,25.7-12.7c5.1-8,3.3-19.2,3.4-28.1c0-4.2-6.5-4.2-6.5,0
			c-0.1,12.2,2.1,24.9-10.4,31.6c-13.6,7.4-32.1-0.8-35.7-15.7c-1.3-5.7,0.8-12.1,5.7-15.3c5.7-3.7,14.1-0.1,18.5,4.1
			c3.2,3,2.8,7.5-0.2,10.4c-4.1,3.9-6.3-3.4-6.8-6.2c-0.8-4.1-7.1-2.4-6.3,1.7c1.2,6,4.8,12.8,11.9,11.8c6.1-0.8,9.7-6.5,10.2-12.2
			c0.8-8.8-8.5-14.4-15.6-16.7c-8.4-2.8-16.9,0.7-21.5,8c-4.6,7.4-3,17,0.9,24.2C584.9,551.6,595.9,556.4,606.3,557z"/>
		<path fill="#FFFFFF" d="M198.7,62.9c-20.6-16.8-44.4-6.8-59.1,12.5c-2.5,3.3,3.2,6.5,5.7,3.2c7.9-10.4,21-20.7,35-17.8
			c12.4,2.6,24.8,14.4,27.5,27c2.2,10.6-1.7,22-9,29.9c-6.9,7.5-17.4,13.5-28,10.3c-9.6-2.8-17.4-11-17.7-21.3
			c-0.5-17.5,17.2-35.2,33-20.5c5.2,4.8,9.3,11.2,8.6,18.5c-0.6,6.9-8.7,14.7-16,10.7c-4.1-2.2-6.2-7.5-5.1-12.1
			c1-4.4,7.7-7.6,5.9-1c-1.1,4.1,5.2,5.7,6.3,1.7c0.7-2.5,2-8.6-1.1-10.2c-2.7-1.3-5.6-2.4-8.6-1.8c-5.5,1.1-8.5,6.1-9,11.4
			c-1.4,13.9,12.2,24.3,25,16.7c27.5-16.4-10.3-62.4-34.7-39.7c-12.1,11.2-15.1,32.1-3.3,44.6c14.8,15.7,38.4,11.5,51-4.7
			C219.4,101.9,217.4,78.1,198.7,62.9z"/>
		<path fill="#FFFFFF" d="M447.1,509.4c11.9-12.5,8.8-33.4-3.3-44.6c-24.4-22.7-62.3,23.2-34.7,39.7c12.8,7.7,26.4-2.8,25-16.7
			c-0.5-5.3-3.5-10.3-9-11.4c-3-0.6-6,0.5-8.6,1.8c-3.2,1.6-1.8,7.6-1.1,10.2c1.1,4.1,7.4,2.4,6.3-1.7c-1.8-6.7,4.8-3.5,5.9,1
			c1.1,4.6-1,9.8-5.1,12.1c-7.3,4-15.4-3.8-16-10.7c-0.6-7.4,3.5-13.8,8.6-18.5c15.9-14.7,33.6,3,33,20.5
			c-0.3,10.3-8.2,18.5-17.7,21.3c-10.5,3.1-21-2.8-28-10.3c-7.3-7.9-11.2-19.3-9-29.9c2.7-12.6,15-24.4,27.5-27
			c14-2.9,27.1,7.4,35,17.8c2.5,3.3,8.2,0.1,5.7-3.2c-14.7-19.2-38.4-29.3-59.1-12.5c-18.7,15.2-20.7,39-6.3,57.6
			C408.7,520.9,432.3,525.1,447.1,509.4z"/>
		<path fill="#FFFFFF" d="M25.9,503.9c-0.6-4.2-6.9-2.4-6.3,1.7c1.7,12.9-0.2,29.5-12.1,37.3c-2.2,1.5-4.8,2.6-7.4,3.5v6.8
			C21.1,547.3,28.8,525.7,25.9,503.9z"/>
		<path fill="#FFFFFF" d="M9.7,512.8c0.3-9.1-3.4-18.4-9.7-24.9v11.4c3.6,7.4,3.9,16.2,0,22.3v9C5.5,526.9,9.4,521,9.7,512.8z"/>
		<path fill="#FFFFFF" d="M778.5,513c-2.1-3.7-7.7-0.4-5.6,3.3c1.3,2.3,4.6,7.5,8,6.4c2.8-1,5.7-2.3,7.4-4.8
			c3.1-4.6,1.6-10.3-1.7-14.4c-8.9-10.8-25.8-8.6-29.5,5.9c-5.9,23.4,26.1,32.4,42.9,21.3v-9c-2.7,4.3-7.5,7.2-14.7,7.5
			c-7,0.3-14.4-1.3-19.2-7c-4.5-5.3-4.3-16.5,3.7-18.9c4.5-1.3,9.7,0.9,12.2,4.9C784.4,512,782,519,778.5,513z"/>
		<path fill="#FFFFFF" d="M800,546.5c-10.1,3.3-22.5,2.4-31.1-3.2c-9.1-5.9-14.4-16.8-14.8-27.5c-0.4-10.2,2.8-21.8,12.4-27.1
			c8.8-4.8,20.1-4.6,27.6,2.5c2.4,2.3,4.4,5.1,5.8,8v-11.4c-5.1-5.3-11.8-8.7-19.5-9c-21.6-0.6-35.3,19-32.7,39.4
			c3,23.3,21.2,38.7,45.2,36.3c2.5-0.3,4.8-0.7,7.1-1.3V546.5z"/>
		<path fill="#FFFFFF" d="M77.6,254.6c-16.3,12.6-20.4,36.1-4.7,51c12.5,11.9,33.4,8.8,44.6-3.3c22.7-24.4-23.2-62.3-39.7-34.7
			c-7.7,12.8,2.8,26.4,16.7,25c5.3-0.5,10.3-3.5,11.4-9c0.6-3-0.5-6-1.8-8.6c-1.6-3.2-7.6-1.8-10.2-1.1c-4.1,1.1-2.4,7.4,1.7,6.3
			c6.7-1.8,3.5,4.8-1,5.9c-4.6,1.1-9.8-1-12.1-5.1c-4-7.3,3.8-15.4,10.7-16c7.4-0.6,13.8,3.5,18.5,8.6c14.7,15.9-3,33.6-20.5,33
			c-10.3-0.3-18.5-8.2-21.3-17.7c-3.1-10.5,2.8-21,10.3-28c7.9-7.3,19.3-11.2,29.9-9c12.6,2.7,24.4,15,27,27.5
			c2.9,14-7.4,27.1-17.8,35c-3.3,2.5-0.1,8.2,3.2,5.7c19.2-14.7,29.3-38.4,12.5-59.1C120,242.2,96.2,240.2,77.6,254.6z"/>
		<path fill="#FFFFFF" d="M346.6,15.6c-16.3,12.6-20.4,36.1-4.7,51c12.5,11.9,33.4,8.8,44.6-3.3c22.7-24.4-23.2-62.3-39.7-34.7
			c-7.7,12.8,2.8,26.4,16.7,25c5.3-0.5,10.3-3.5,11.4-9c0.6-3-0.5-6-1.8-8.6c-1.6-3.2-7.6-1.8-10.2-1.1c-4.1,1.1-2.4,7.4,1.7,6.3
			c6.7-1.8,3.5,4.8-1,5.9c-4.6,1.1-9.8-1-12.1-5.1c-4-7.3,3.8-15.4,10.7-16c7.4-0.6,13.8,3.5,18.5,8.6c14.7,15.9-3,33.6-20.5,33
			c-10.3-0.3-18.5-8.2-21.3-17.7c-3.1-10.5,2.8-21,10.3-28c7.9-7.3,19.3-11.2,29.9-9c12.6,2.7,24.4,15,27,27.5
			c2.9,14-7.4,27.1-17.8,35c-3.3,2.5-0.1,8.2,3.2,5.7C411,66.3,421,42.5,404.2,21.9C389,3.2,365.3,1.2,346.6,15.6z"/>
		<path fill="#FFFFFF" d="M273.6,346.7c-16.3,12.6-20.4,36.1-4.7,51c12.5,11.9,33.4,8.8,44.6-3.3c22.7-24.4-23.2-62.3-39.7-34.7
			c-7.7,12.8,2.8,26.4,16.7,25c5.3-0.5,10.3-3.5,11.4-9c0.6-3-0.5-6-1.8-8.6c-1.6-3.2-7.6-1.8-10.2-1.1c-4.1,1.1-2.4,7.4,1.7,6.3
			c6.7-1.8,3.5,4.8-1,5.8c-4.6,1.1-9.8-1-12.1-5.1c-4-7.3,3.8-15.4,10.7-16c7.4-0.6,13.8,3.5,18.5,8.6c14.7,15.9-3,33.6-20.5,33
			c-10.3-0.3-18.5-8.2-21.3-17.7c-3.1-10.5,2.8-21,10.3-28c7.9-7.3,19.3-11.2,29.9-9c12.6,2.7,24.4,15,27,27.5
			c2.9,14-7.4,27.1-17.8,35c-3.3,2.5-0.1,8.2,3.2,5.7c19.2-14.7,29.3-38.4,12.5-59.1C316,334.3,292.2,332.4,273.6,346.7z"/>
	</g>
</g>
</svg>
